<?xml version="1.0" encoding="UTF-8"?>
<svg id="expanded" xmlns="http://www.w3.org/2000/svg" viewBox="0 0 120 120"><metadata><c2pa:manifest xmlns:c2pa="http://c2pa.org/manifest">AAAsZ2p1bWIAAAAeanVtZGMycGEAEQAQgAAAqgA4m3EDYzJwYQAAACxBanVtYgAAAEdqdW1kYzJtYQARABCAAACqADibcQN1cm46dXVpZDphMDIyMjcwYi0wMzhmLTQxNzEtOTk0MS1mNTY0ZDVkYTkyYjYAAAABp2p1bWIAAAApanVtZGMyYXMAEQAQgAAAqgA4m3EDYzJwYS5hc3NlcnRpb25zAAAAAMpqdW1iAAAAJmp1bWRjYm9yABEAEIAAAKoAOJtxA2MycGEuYWN0aW9ucwAAAACcY2JvcqFnYWN0aW9uc4GjZmFjdGlvbmtjMnBhLmVkaXRlZG1zb2Z0d2FyZUFnZW50bUFkb2JlIEZpcmVmbHlxZGlnaXRhbFNvdXJjZVR5cGV4Rmh0dHA6Ly9jdi5pcHRjLm9yZy9uZXdzY29kZXMvZGlnaXRhbHNvdXJjZXR5cGUvdHJhaW5lZEFsZ29yaXRobWljTWVkaWEAAACsanVtYgAAAChqdW1kY2JvcgARABCAAACqADibcQNjMnBhLmhhc2guZGF0YQAAAAB8Y2JvcqVqZXhjbHVzaW9uc4GiZXN0YXJ0GLJmbGVuZ3RoGTs0ZG5hbWVuanVtYmYgbWFuaWZlc3RjYWxnZnNoYTI1NmRoYXNoWCAf4w+Sd3Cb8h000qXq0mRgS72I/pMOpB94aQ5yCmG31GNwYWRJAAAAAAAAAAAAAAACC2p1bWIAAAAkanVtZGMyY2wAEQAQgAAAqgA4m3EDYzJwYS5jbGFpbQAAAAHfY2JvcqhoZGM6dGl0bGVvR2VuZXJhdGVkIEltYWdlaWRjOmZvcm1hdG1pbWFnZS9zdmcreG1samluc3RhbmNlSUR4LHhtcDppaWQ6ZTQyY2Q3ZWUtYWYzZC00NWU2LTg5M2YtNmI0OTUzNjU5MjQ2b2NsYWltX2dlbmVyYXRvcng2QWRvYmVfSWxsdXN0cmF0b3IvMjguMCBhZG9iZV9jMnBhLzAuNy42IGMycGEtcnMvMC4yNS4ydGNsYWltX2dlbmVyYXRvcl9pbmZvgb9kbmFtZXFBZG9iZSBJbGx1c3RyYXRvcmd2ZXJzaW9uZDI4LjD/aXNpZ25hdHVyZXgZc2VsZiNqdW1iZj1jMnBhLnNpZ25hdHVyZWphc3NlcnRpb25zgqJjdXJseCdzZWxmI2p1bWJmPWMycGEuYXNzZXJ0aW9ucy9jMnBhLmFjdGlvbnNkaGFzaFgg66xm4WqDn3xgnOk59f7WI0GCp10rxJISEEb0ImTQK8GiY3VybHgpc2VsZiNqdW1iZj1jMnBhLmFzc2VydGlvbnMvYzJwYS5oYXNoLmRhdGFkaGFzaFggH5hjjUVSTO8QXjEbG3O5102ao8g4h05eCzlnSy6M4CJjYWxnZnNoYTI1NgAAKEBqdW1iAAAAKGp1bWRjMmNzABEAEIAAAKoAOJtxA2MycGEuc2lnbmF0dXJlAAAAKBBjYm9y0oRZDMKiATgkGCGCWQYQMIIGDDCCA/SgAwIBAgIQf/J0H9HG3kO1lHqOZXCenjANBgkqhkiG9w0BAQsFADB1MQswCQYDVQQGEwJVUzEjMCEGA1UEChMaQWRvYmUgU3lzdGVtcyBJbmNvcnBvcmF0ZWQxHTAbBgNVBAsTFEFkb2JlIFRydXN0IFNlcnZpY2VzMSIwIAYDVQQDExlBZG9iZSBQcm9kdWN0IFNlcnZpY2VzIEczMB4XDTI0MDExMTAwMDAwMFoXDTI1MDExMDIzNTk1OVowfzERMA8GA1UEAwwIY2FpLXByb2QxEzARBgNVBAoMCkFkb2JlIEluYy4xETAPBgNVBAcMCFNhbiBKb3NlMRMwEQYDVQQIDApDYWxpZm9ybmlhMQswCQYDVQQGEwJVUzEgMB4GCSqGSIb3DQEJARYRY2FpLW9wc0BhZG9iZS5jb20wggEiMA0GCSqGSIb3DQEBAQUAA4IBDwAwggEKAoIBAQDv0wCnfYY9lkHDsykrTG7FYlnYHBcyualuD5u9ULjzv+FsTWOLg8Nhrz9RTxI9EeBbu3Wm7f4vqPsQYfxkEp0wIa6DVmEOZhbAeRfbhybWQ/D4Wvvck4mEZR+QZmTpIn7HX61gbtMFHlJUxkYBctIoAt9TBAFbz9d5Ig2WG0bsH39b6/8USXnIIk4FB6dtBRT1xeEwSDtwOd1YBpXXNBJmRWHXNJZZ85of2tBTesg/kMvTrOJJxYDZ97U416wcvbVomlees+NXUY3/ZB4xH+NsZils7m1bL2v2hSnHiLoqZeUKklbHUmT4ZpjrZCdtuIsWm5j2PPXKr7HKUuCbZSXBAgMBAAWjggGMMIIBiDAMBgNVHRMBAf8EAjAAMA4GA1UdDwEB/wQEAwIHgDAeBgNVHSUEFzAVBgkqhkiG9y8BAQwGCCsGAQUFBwMEMIGOBgNVHSAEgYYwgYMwgYAGCSqGSIb3LwECAzBzMHEGCCsGAQUFBwICMGUMY1lvdSBhcmUgbm90IHBlcm1pdHRlZCB0byB1c2UgdGhpcyBMaWNlbnNlIENlcnRpZmljYXRlIGV4Y2VwdCBhcyBwZXJtaXR0ZWQgYnkgdGhlIGxpY2Vuc2UgYWdyZWVtZW50LjBdBgNVHR8EVjBUMFKgUKBOhkxodHRwOi8vcGtpLWNybC5zeW1hdXRoLmNvbS9jYV83YTVjM2EwYzczMTE3NDA2YWRkMTkzMTJiYzFiYzIzZi9MYXRlc3RDUkwuY3JsMDcGCCsGAQUFBwEBBCswKTAnBggrBgEFBQcwAYYbaHR0cDovL3BraS1vY3NwLnN5bWF1dGguY29tMB8GA1UdIwQYMBaAFFcpejJNzP7kNU7AHyRzznNTq99qMA0GCSqGSIb3DQEBCwUAA4ICAQAhY9X822Lvow9+KlSdkAI/95WsS/n1Y5se5YJkePUHLxsablSaNOA9BiVfJOPxcT+JjbumGCseDSmIOxYPO7mzwHpMqRoyZS+C2T5SC6TJtt920ELoq+0aDLjRw7gOQRSg8OK0PFPWKBtCp0qiAChUqoMRWqcX4IVBDO1sZxmEUj1cpOwJDB/2HDsuEkKjqMA0EgAE3JC1LBYik95IQmE9WBYvIp6mBDEkyovqyBhnEar2kJJCfaBLylp/JAUsHJnAQEP8PHK1FlkvpvdleoX59lmwT1+wHGlxYWK/ykW+AFA60LOVJt8byjtuAE8lebuYADyPe3eEMR4THQbHwH/1rz2nNN5tZWsPdIR7S5mX0RtUL74XgSixEkV1jDO4/WIk7V3kjdXEZr0WtWr8VgEY5G+8NpPBqd2LMLBp7jejMIj3tA8RS1L6MnO3PWRqkdwGwsCHsvGcTzauWarWji990WxBTPscSk6Q8WTIqiHI9OfUUiriWQkpfeMEDo1r+zHJRmj26+zgID7QB41xNeV3K6BFQX6ayl1swuIh26KB0Mu74sndRzG+8tMTffvjBoO9QPW/OtdWyYmsLGT0Kcj9EaaIg1JmgNtRBwo9f89eYJSYwenQ+GddpqdnBIjk63Q+K3gCdlpTs++tJCZ7DX9yndmYlx94HgUZFPcNimun6VkGpTCCBqEwggSJoAMCAQICEAyotlR7iebSBol1zYubieIwDQYJKoZIhvcNAQELBQAwbDELMAkGA1UEBhMCVVMxIzAhBgNVBAoTGkFkb2JlIFN5c3RlbXMgSW5jb3Jwb3JhdGVkMR0wGwYDVQQLExRBZG9iZSBUcnVzdCBTZXJ2aWNlczEZMBcGA1UEAxMQQWRvYmUgUm9vdCBDQSBHMjAeFw0xNjExMjkwMDAwMDBaFw00MTExMjgyMzU5NTlaMHUxCzAJBgNVBAYTAlVTMSMwIQYDVQQKExpBZG9iZSBTeXN0ZW1zIEluY29ycG9yYXRlZDEdMBsGA1UECxMUQWRvYmUgVHJ1c3QgU2VydmljZXMxIjAgBgNVBAMTGUFkb2JlIFByb2R1Y3QgU2VydmljZXMgRzMwggIiMA0GCSqGSIb3DQEBAQUAA4ICDwAwggIKAoICAQC3Hy69vQmzXEhs/gyDrmwB6lF4JaSAPomnsbKIZNr2iXaB+fkd85X8eJiNmI7P5O4cVT4Nc1p3zrESqBV4ZUyW8gcZ78QdwoHG8QNd2VNcHnMgSR+XT9Iafsnq9Nfww3Jt9KL3l5ANQ5n1+MJqr48EWNLll942bOL/JH4ywDSMoqhZqtJEIUUUGlQVBZ8CAvJc7LE6ddA5C52PE2Ppa7RfQgHXf4gfXVZwpxYRZcziPiOHqEvLb0J3cShUbejFxV6cwX8QyAPa1ePHg1RtM0HX+D34xHo3DkyGnmT+Ddq00TEDGG26AL5PdINKFIQl+zaq6KJFQe1fdGE5wrWzU4mBPmzaz3EbLn+7FWlwAhorYqIMldbfHE3ydc+aTU1JW7+bG19qmvhO9IluGtTtQDeqFBj2fg6faxsfVfVPD7stN6TwoIDlkOCE4RE+Iin8m3z3eqi/VsTmsmRqBxWDRaqOHz02EJoEDxXJG3ei+UbIIp01XZQvdufm90WxOTuqqan2ZqTPX9K5VdjEh/ovr7xFc5q1dZo+Sa5y4sTVM854/tLU3klOgUKzzSXYPYS3GhBcYJHjwr9xNRHnNX99D6F0g7OijScWfvtjxh13aTv/H0ETvymah4yfDpVdh9cK5YSCPqnuOlsujFAyhYwJXOWDvZZU2EkWVLDhoPx9zp7N4QIDAQABo4IBNDCCATAwEgYDVR0TAQH/BAgwBgEB/wIBADA1BgNVHR8ELjAsMCqgKKAmhiRodHRwOi8vY3JsLmFkb2JlLmNvbS9hZG9iZXJvb3RnMi5jcmwwDgYDVR0PAQH/BAQDAgEGMBQGA1UdJQQNMAsGCSqGSIb3LwEBBzBXBgNVHSAEUDBOMEwGCSqGSIb3LwECAzA/MD0GCCsGAQUFBwIBFjFodHRwczovL3d3dy5hZG9iZS5jb20vbWlzYy9wa2kvcHJvZF9zdmNlX2Nwcy5odG1sMCQGA1UdEQQdMBukGTAXMRUwEwYDVQQDEwxTWU1DLTQwOTYtMzMwHQYDVR0OBBYEFFcpejJNzP7kNU7AHyRzznNTq99qMB8GA1UdIwQYMBaAFKYc4W1UJEyoj0hyv26pjNXk7DHUMA0GCSqGSIb3DQEBCwUAA4ICAQBxzuUHjKbcLdzI4DtlXgCSgZXrlSAkr59pOF3JfPG42qVNAGU7JcEYXJ6+WbfcGwY7WYMl+jO7IvJPb7shXFYW9bnJgxX7lLU14KExchmcLNY1ee6IhBJ2Y8PzZMRUKSd5CkURPg0PBLGjz/KR/DofHx+G4rPTCOGORYxeYrd01lci5hVxvKccvIk7MD69ZTewfZPSM+0WnsU3f0Zmd7hgbRpUyWceG0eHFpdUKK/ZFWhHjDVC28odCnN885tHncKXviItK0ZUUo/AIthFKlhEXsnq9VL9fFbgvO83ZvpUQo5y8mY3cuGnEVGXdhjNb53CfC1u4dbpYmWaN99subUzEsUaUb3loLPfVfzDOpg2y9v37kBdy/wuXr20teY7U62xj/fAgs1QSnhUtlMTfCqbefyEycKVmKIrJkJLsvgTSYKVvH4FFIwfd5WjqOC97jX98rcVAzhAI0iSkazsWOMvL6m0L4nLJapx+85GsVX8Y6AHmEP4bmCElwil6KAP+UewJFiw5rmwV2pESHAhYuZJa03B8tl0nd2QJzvJGmbeBqXqpF9ORinFM3HErK8puRokOjFH2+1asLeI2tB31W/ELdNe27Ogduq6Z6qBwCp59YX27qydDhD0WRfN64kCs25K88iGAGNW2CAfTDS+b+WYJBiIL9jXYZ4LF+BiUvfdu6Jmc2lnVHN0oWl0c3RUb2tlbnOBoWN2YWxZFz8wghc7MAMCAQAwghcyBgkqhkiG9w0BBwKgghcjMIIXHwIBAzEPMA0GCWCGSAFlAwQCAQUAMIGBBgsqhkiG9w0BCRABBKByBHAwbgIBAQYJYIZIAYb9bAcBMDEwDQYJYIZIAWUDBAIBBQAEINuSIJttmwUbzQb0YQau1+09lzmT0jnkJR9jCmRwkXN3AhAoiLkIVJgu2kAL2qRs2NnRGA8yMDI0MDMwNTExNTgxOVoCCAYODCmtaHfuoIITCTCCBsIwggSqoAMCAQICEAVEr/OUnQg5pr/bP1/lYRYwDQYJKoZIhvcNAQELBQAwYzELMAkGA1UEBhMCVVMxFzAVBgNVBAoTDkRpZ2lDZXJ0LCBJbmMuMTswOQYDVQQDEzJEaWdpQ2VydCBUcnVzdGVkIEc0IFJTQTQwOTYgU0hBMjU2IFRpbWVTdGFtcGluZyBDQTAeFw0yMzA3MTQwMDAwMDBaFw0zNDEwMTMyMzU5NTlaMEgxCzAJBgNVBAYTAlVTMRcwFQYDVQQKEw5EaWdpQ2VydCwgSW5jLjEgMB4GA1UEAxMXRGlnaUNlcnQgVGltZXN0YW1wIDIwMjMwggIiMA0GCSqGSIb3DQEBAQUAA4ICDwAwggIKAoICAQCjU0WHHYOOW6w+VLMj4M+f1+XS512hDgncL0ijl3o7Kpxn3GIVWMGpkxGnzaqyat0QKYoeYmNp01icNXG/OpfrlFCPHCDqx5o7L5Zm42nnaf5bw9YrIBzBl5S0pVCB8s/LB6YwaMqDQtr8fwkklKSCGtpqutg7yl3eGRiF+0XqDWFsnf5xXsQGmjzwxS55DxtmUuPI1j5f2kPThPXQx/ZILV5FdZZ1/t0QoRuDwbjmUpW1R9d4KTlr4HhZl+NEK0rVlc7vCBfqgmRN/yPjyobutKQhZHDr1eWg2mOzLukF7qr2JPUdvJscsrdf3/Dudn0xmWVHVZ1KJC+sK5e+n+T9e3M+Mu5SNPvUu+vUoCw0m+PebmQZBzcBkQ8ctVHNqkxmg4hoYru8QRt4GW3k2Q/gWEH72LEs4VGvtK0VBhTqYggT02kefGRNnQ/fztFejKqrUBXJs8q818Q7aESjpTtC/XN97t0K/3k0EH6mXApYTAA+hWl1x4Nk1nXNjxJ2VqUk+tfEayG66B80mC866msBsPf7Kobse1I4qZgJoXGybHGvPrhvltXhEBP+YUcKjP7wtsfVx95sJPC/QoLKoHE9nJKTBLRpcCcNT7e1NtHJXwikcKPsCvERLmTgyyIryvEoEyFJUX4GZtM7vvrrkTjYUQfKlLfiUKHzOtOKg8tAewIDAQABo4IBizCCAYcwDgYDVR0PAQH/BAQDAgeAMAwGA1UdEwEB/wQCMAAwFgYDVR0lAQH/BAwwCgYIKwYBBQUHAwgwIAYDVR0gBBkwFzAIBgZngQwBBAIwCwYJYIZIAYb9bAcBMB8GA1UdIwQYMBaAFLoW2W1NhS9zKXaaL3WMaiCPnshvMB0GA1UdDgQWBBSltu8T5+/N0GSh1VapZTGj3tXjSTBaBgNVHR8EUzBRME+gTaBLhklodHRwOi8vY3JsMy5kaWdpY2VydC5jb20vRGlnaUNlcnRUcnVzdGVkRzRSU0E0MDk2U0hBMjU2VGltZVN0YW1waW5nQ0EuY3JsMIGQBggrBgEFBQcBAQSBgzCBgDAkBggrBgEFBQcwAYYYaHR0cDovL29jc3AuZGlnaWNlcnQuY29tMFgGCCsGAQUFBzAChkxodHRwOi8vY2FjZXJ0cy5kaWdpY2VydC5jb20vRGlnaUNlcnRUcnVzdGVkRzRSU0E0MDk2U0hBMjU2VGltZVN0YW1waW5nQ0EuY3J0MA0GCSqGSIb3DQEBCwUAA4ICAQCBGtbeoKm1mBe8cI1PijxonNgl/8ss5M3qXSKS7IwiAqm4z4Co2efjxe0mgopxLxjdTrbebNfhYJwr7e09SI64a7p8Xb3CYTdoSXej65CqEtcnhfOOHpLawkA4n13IoC4leCWdKgV6hCmYtld5j9smViuw86e9NwzYmHZPVrlSwradOKmB521BXIxp0bkrxMZ7z5z6eOKTGnaiaXXTUOREEr4gDZ6pRND45Ul3CFohxbTPmJUaVLq5vMFpGbrPFvKDNzRusEEm3d5al08zjdSNd311RaGlWCZqA0Xe2VC1UIyvVr1MxeFGxSjTredDAHDezJieGYkD6tSRN+9NUvPJYCHEVkft2hFLjDLDiOZY4rbbPvlfsELWj+MXkdGqwFXjhr+sJyxB0JozSqg21Llyln6XeThIX8rC3D0y33XWNmdaifj2p8flTzU8AL2+nCpseQHc2kTmOt44OwdeOVj0fHMxVaCAEcsUDH6uvP6k63llqmjWIso765qCNVcoFstp8jKastLYOrixRoZruhf9xHdsFWyuq69zOuhJRrfVf8y2OMDY7Bz1tqG4QyzfTkx9HmhwwHcK1ALgXGC7KP845VJa1qwXIiNO9OzTF/tQa/8Hdx9xl0RBybhG02wyfFgvZ0dl5Rtztpn5aywGRu9BHvDwX+Db2a2QgESvgBBBijCCBq4wggSWoAMCAQICEAc2N7ckVHzYR6z9KGYqXlswDQYJKoZIhvcNAQELBQAwYjELMAkGA1UEBhMCVVMxFTATBgNVBAoTDERpZ2lDZXJ0IEluYzEZMBcGA1UECxMQd3d3LmRpZ2ljZXJ0LmNvbTEhMB8GA1UEAxMYRGlnaUNlcnQgVHJ1c3RlZCBSb290IEc0MB4XDTIyMDMyMzAwMDAwMFoXDTM3MDMyMjIzNTk1OVowYzELMAkGA1UEBhMCVVMxFzAVBgNVBAoTDkRpZ2lDZXJ0LCBJbmMuMTswOQYDVQQDEzJEaWdpQ2VydCBUcnVzdGVkIEc0IFJTQTQwOTYgU0hBMjU2IFRpbWVTdGFtcGluZyBDQTCCAiIwDQYJKoZIhvcNAQEBBQADggIPADCCAgoCggIBAMaGNQZJs8E9cklRVcclA8TykTepl1Gh1tKD0Z5Mom2gsMyD+Vr2EaFEFUJfpIjzaPp985yJC3+dH54PMx9QEwsmc5Zt+FeoAn39Q7SE2hHxc7Gz7iuAhIoiGN/r2j3EF3+rGSs+QtxnjupRPfDWVtTnKC3r07G1decfBmWNlCnT2exp39mQh0YAe9tEQYncfGpXevA3eZ9drMvohGS0UvJ2R/dhgxndX7RUCyFobjchu0CsX7LeSn3O9TkSZ+8OpWNs5KbFHc02DVzV5huowWR0QKfAcsW6Th+xtVhNef7Xj3OTrCw54qVI1vCwMROpVymWJy71h6aPTnYVVSZwmCZ/oBpHIEPjQ2OAe3VuJyWQmDo4EbP29p7mO1vsgd4iFNmCKseSv6De4z6ic/rnH1pslPJSlRErWHRAKKtzQ87fSqEcazjFKfPKqpZzQmiftkaznTqj1QPgv/CiPMpC3BhIfxQ0z9JMq++bPf4OuGQq+nUoJEHtQr8FnGZJUlD0UfM2SU2LINIsVzV5K6jzRWC8I41Y99xh3pP+OcD5sjClTNfpmEpYPtMDiP6zj9NeS3YSUZPJjAw7W4oiqMEmCPkUEBIDfV8ju2TjY+Cm4T72wnSyPx4JduyrXUZ14mCjWAkBKAAOhFTuzuldyF4wEr1GnrXTdrnSDmuZDNIztM2xAgMBAAGjggFdMIIBWTASBgNVHRMBAf8ECDAGAQH/AgEAMB0GA1UdDgQWBBS6FtltTYUvcyl2mi91jGogj57IbzAfBgNVHSMEGDAWgBTs1+OC0nFdZEzfLmc/57qYrhwPTzAOBgNVHQ8BAf8EBAMCAYYwEwYDVR0lBAwwCgYIKwYBBQUHAwgwdwYIKwYBBQUHAQEEazBpMCQGCCsGAQUFBzABhhhodHRwOi8vb2NzcC5kaWdpY2VydC5jb20wQQYIKwYBBQUHMAKGNWh0dHA6Ly9jYWNlcnRzLmRpZ2ljZXJ0LmNvbS9EaWdpQ2VydFRydXN0ZWRSb290RzQuY3J0MEMGA1UdHwQ8MDowOKA2oDSGMmh0dHA6Ly9jcmwzLmRpZ2ljZXJ0LmNvbS9EaWdpQ2VydFRydXN0ZWRSb290RzQuY3JsMCAGA1UdIAQZMBcwCAYGZ4EMAQQCMAsGCWCGSAGG/WwHATANBgkqhkiG9w0BAQsFAAOCAgEAfVmOwJO2b5ipRCIBfmbW2CFC4bAYLhBNE88wU86/GPvHUF3iSyn7cIoNqilp/GnBzx0H6T5gyNgL5Vxb122H+oQgJTQxZ822EpZvxFBMYh0MCIKoFr2pVs8Vc40BIiXOlWk/R3f7cnQU1/+rT4osequFzUNf7WC2qk+RZp4snuCKrOX9jLxkJodskr2dfNBwCnzvqLx1T7pa96kQsl3p/yhUifDVinF2ZdrM8HKjI/rAJ4JErpknG6skHibBt94q6/aesXmZgaNWhqsKRcnfxI2g55j7+6adcq/Ex8HBanHZxhOACcS2n82HhyS7T6NJuXdmkfFynOlLAlKnN36TU6w7HQhJD5TNOXrd/yVjmScsPT9rp/Fmw0HNT7ZAmyEhQNC3EyTN3B14OuSereU0cZLXJmvkOHOrpgFPvT87eK1MrfvElXvtCl8zOYdBeHo46Zzh3SP9HSjTx/no8Zhf+yvYfvJGnXUsHicsJttvFXseGYs2uJPU5vIXmVnKcPA3v5gA3yAWTyf7YGcWoWa63VXAOimGsJigK+2VQbc61RWYMbRiCQ8KvYHZE/6/pNHzV9m8BPqC3jLfBInwAM1dwvnQI38AC+R2AibZ8GV2QqYphwlHK+Z/GqSFD/yYlvZVVCsfgPrA8g4r5db7qS9EFUrnEw4d2zc4GqEr9u3WfPwwggWNMIIEdaADAgECAhAOmxiO+dAt5+/bUOIIQBhaMA0GCSqGSIb3DQEBDAUAMGUxCzAJBgNVBAYTAlVTMRUwEwYDVQQKEwxEaWdpQ2VydCBJbmMxGTAXBgNVBAsTEHd3dy5kaWdpY2VydC5jb20xJDAiBgNVBAMTG0RpZ2lDZXJ0IEFzc3VyZWQgSUQgUm9vdCBDQTAeFw0yMjA4MDEwMDAwMDBaFw0zMTExMDkyMzU5NTlaMGIxCzAJBgNVBAYTAlVTMRUwEwYDVQQKEwxEaWdpQ2VydCBJbmMxGTAXBgNVBAsTEHd3dy5kaWdpY2VydC5jb20xITAfBgNVBAMTGERpZ2lDZXJ0IFRydXN0ZWQgUm9vdCBHNDCCAiIwDQYJKoZIhvcNAQEBBQADggIPADCCAgoCggIBAL/mkHNo3rvkXUo8MCIwaTPswqclLskhPfKK2FnC4SmnPVirdprNrnsbhA3EMB/zG6Q4FutWxpdtHauyefLKEdLkX9YFPFIPUh/GnhWlfr6fqVcWWVVyr2iTcMKyunWZanMylNEQRBAu34LzB4TmdDttceItDBvuINXJIB1jKS3O7F5OyJP4IWGbNOsFxl7sWxq868nPzaw0QF+xembud8hIqGZXV59UWI4MK7dPpzDZVu7Ke13jrclPXuU15zHL2pNe3I6PgNq2kZhAkHnDeMe2scS1ahg4AxCN2NQ3pC4FfYj1gj4QkXCrVYJBMtfbBHMqbpEBfCFM1LyuGwN1XXhm2ToxRJozQL8I11pJpMLmqaBn3aQnvKFPObURWBf3JFxGj2T3wWmIdph2PVldQnaHiZdpekjw4KISG2aadMreSx7nDmOu5tTvkpI6nj3cAORFJYm2mkQZK37AlLTSYW3rM9nF30sEAMx9HJXDj/chsrIRt7t/8tWMcCxBYKqxYxhElRp2Yn72gLD76GSmM9GJB+G9t+ZDpBi4pncB4Q+UDCEdslQpJYls5Q5SUUd0viastkF13nqsX40/ybzTQRESW+UQUOsxxcpyFiIJ33xMdT9j7CFfxCBRa2+xq4aLT8LWRV+dIPyhHsXAj6KxfgommfXkaS+YHS312amyHeUbAgMBAAGjggE6MIIBNjAPBgNVHRMBAf8EBTADAQH/MB0GA1UdDgQWBBTs1+OC0nFdZEzfLmc/57qYrhwPTzAfBgNVHSMEGDAWgBRF66Kv9JLLgjEtUYunpyGd823IDzAOBgNVHQ8BAf8EBAMCAYYweQYIKwYBBQUHAQEEbTBrMCQGCCsGAQUFBzABhhhodHRwOi8vb2NzcC5kaWdpY2VydC5jb20wQwYIKwYBBQUHMAKGN2h0dHA6Ly9jYWNlcnRzLmRpZ2ljZXJ0LmNvbS9EaWdpQ2VydEFzc3VyZWRJRFJvb3RDQS5jcnQwRQYDVR0fBD4wPDA6oDigNoY0aHR0cDovL2NybDMuZGlnaWNlcnQuY29tL0RpZ2lDZXJ0QXNzdXJlZElEUm9vdENBLmNybDARBgNVHSAECjAIMAYGBFUdIAAwDQYJKoZIhvcNAQEMBQADggEBAHCgv0NcVec4X6CjdBs9thbX979XB72arKGHLOyFXqkauyL4hxppVCLtpIh3bb0aFPQTSnovLbc47/T/gLn4offyct4kvFIDyE7QKt76LVbP+fT3rDB6mouyXtTP0UNEm0Mh65ZyoUi0mcudT6cGAxN3J0TU53/oWajwvy8LpunyNDzs9wPHh6jSTEAZNUZqaVSwuKFWjuyk1T3osdz9HNj0d1pcVIxv76FQPfx2CWiEn2/K2yCNNWAcAgPLILCsWKAOQGPFmCLBsln1VWvPJ6tsds5vIy30fnFqI2si/xK4VC0nftg62fC2h5b9W9FcrBjDTZ9ztwGpn1eqXijiuZQxggN2MIIDcgIBATB3MGMxCzAJBgNVBAYTAlVTMRcwFQYDVQQKEw5EaWdpQ2VydCwgSW5jLjE7MDkGA1UEAxMyRGlnaUNlcnQgVHJ1c3RlZCBHNCBSU0E0MDk2IFNIQTI1NiBUaW1lU3RhbXBpbmcgQ0ECEAVEr/OUnQg5pr/bP1/lYRYwDQYJYIZIAWUDBAIBBQCggdEwGgYJKoZIhvcNAQkDMQ0GCyqGSIb3DQEJEAEEMBwGCSqGSIb3DQEJBTEPFw0yNDAzMDUxMTU4MTlaMCsGCyqGSIb3DQEJEAIMMRwwGjAYMBYEFGbwKzLCwskPgl3OqorJxk8ZnM9AMC8GCSqGSIb3DQEJBDEiBCBbGV3ulNQln9liqXzKRHEypFSWferoMIGnYKGOu4YQJjA3BgsqhkiG9w0BCRACLzEoMCYwJDAiBCDS9uRt7XQizNHUQFdoQTZvgoraVZquMxavTRqa1Ax4KDANBgkqhkiG9w0BAQEFAASCAgBO28JITDcIJZb9fxWWMUtiK2xsvbPhwtTOFZsVBH2+10MEVlQXvTCiujimmegRxXWVR/i44XlgOn+TOokCeXmXyG6I0PiBGlaFr3hiV0LOR+m58+E+fRQpQJNg2p2f+3zcsTah+rOk3R3KUQcafGi58v3jOPsTdiajXn3VJR/SPckrC1+Zl+yxG31ybFG8F3cjkFvd6zn8HKaRdgjWbUNOyrecsHtQT7zIAUWn0GV/woPQWxC9QrznwnZXQhTSvFumOGAlahPTHa3TAcqaXrW568DeoRv/k4pMNqtxqgp0X1D1RTyIn+meDd8isRparwMMynrmS5xTPim3AsIbj93axeErDr8Y3MiSHdPrpFQEMtFRfIGRly9ZUnjeJqrLED/yrLa0hoDaw2jkdqpmw1DITUlV7+tlwElZ38xwqmUS2tAaZKezaDpsWKd815eh+3qAsrK+W+4lzbzFiLQKMsQFk9Cm+YFETSJ0zqIkJTUfNur2dpxEsNLbX67EZ7dalpCY8MxpAjdD5m4PC6yjjqERfJnKt4Brc9yY2DXGiUwq/+YyRu87xkM14nT3F1nplEBjXjNN8ON6YoTnzmIsXWpMgI2KF8nUp8QDyEiqvINpAkBEW1gzUTvC81K2UcHArZbpazS+N6E4jP7kFHx9PaRxublyaYo9UFStpLHvvd5cdGNwYWRZAtsAAAAAAAAAAAAAAAAAAAAAAAAAAAAAAAAAAAAAAAAAAAAAAAAAAAAAAAAAAAAAAAAAAAAAAAAAAAAAAAAAAAAAAAAAAAAAAAAAAAAAAAAAAAAAAAAAAAAAAAAAAAAAAAAAAAAAAAAAAAAAAAAAAAAAAAAAAAAAAAAAAAAAAAAAAAAAAAAAAAAAAAAAAAAAAAAAAAAAAAAAAAAAAAAAAAAAAAAAAAAAAAAAAAAAAAAAAAAAAAAAAAAAAAAAAAAAAAAAAAAAAAAAAAAAAAAAAAAAAAAAAAAAAAAAAAAAAAAAAAAAAAAAAAAAAAAAAAAAAAAAAAAAAAAAAAAAAAAAAAAAAAAAAAAAAAAAAAAAAAAAAAAAAAAAAAAAAAAAAAAAAAAAAAAAAAAAAAAAAAAAAAAAAAAAAAAAAAAAAAAAAAAAAAAAAAAAAAAAAAAAAAAAAAAAAAAAAAAAAAAAAAAAAAAAAAAAAAAAAAAAAAAAAAAAAAAAAAAAAAAAAAAAAAAAAAAAAAAAAAAAAAAAAAAAAAAAAAAAAAAAAAAAAAAAAAAAAAAAAAAAAAAAAAAAAAAAAAAAAAAAAAAAAAAAAAAAAAAAAAAAAAAAAAAAAAAAAAAAAAAAAAAAAAAAAAAAAAAAAAAAAAAAAAAAAAAAAAAAAAAAAAAAAAAAAAAAAAAAAAAAAAAAAAAAAAAAAAAAAAAAAAAAAAAAAAAAAAAAAAAAAAAAAAAAAAAAAAAAAAAAAAAAAAAAAAAAAAAAAAAAAAAAAAAAAAAAAAAAAAAAAAAAAAAAAAAAAAAAAAAAAAAAAAAAAAAAAAAAAAAAAAAAAAAAAAAAAAAAAAAAAAAAAAAAAAAAAAAAAAAAAAAAAAAAAAAAAAAAAAAAAAAAAAAAAAAAAAAAAAAAAAAAAAAAAAAAAAAAAAAAAAAAAAAAAAAAAAAAAAAAAAAAAAAAAAAAAAAAAAAAAAAAAAAAAAAAAPZZAQA8TnP2adafu38n041J+TvsT0Z+1vLyrcJbRpbbtguXsz2+xk4pAFrXreW+GBXceVV5suMJsk4oTXjiojpJkIveOq+tfRO4wSMnCgO3VVuRpBhGsbwgQBS9UBgwnrjTedFhncxVQL20SkTJqh9H+GIUg4ijZ6P1bCTQeSOSufiaPJz8vLXk45M+iMKyyNIvUcHev4vfOSCO4LRJtv+TRBjhtso147DOU+DJ/PZWsmy9p3yPzkjlcfc9jok1KT5sV5v7ToX+jwhd8BmIIEyR39wcPodDVPn/X7X7RURzpMQXWYjKgHNUHC6+MKWbUrjqaNDSvaiJZ3AWRaKsbvPwXzca</c2pa:manifest></metadata>
  <defs>
    <style>
      .cls-1 {
        stroke-width: 0px;
      }
    </style>
  </defs>
  <path class="cls-1" d="m26.64,48.07h0c.39-.39.39-1.02,0-1.41l-4.05-4.04c-.39-.39-.39-1.02,0-1.41l4.05-4.05c.39-.39.39-1.02,0-1.41-.39-.39-1.02-.39-1.41,0l-5.46,5.46c-.39.39-.39,1.02,0,1.41l5.46,5.45c.39.39,1.02.39,1.41,0Z"/>
  <path class="cls-1" d="m41.66,46.66c-.39.39-.39,1.02,0,1.41h0c.39.39,1.02.39,1.41,0l5.46-5.45c.39-.39.39-1.02,0-1.41l-5.46-5.46c-.39-.39-1.02-.39-1.41,0-.39.39-.39,1.02,0,1.41l4.05,4.05c.39.39.39,1.02,0,1.41l-4.05,4.04Z"/>
  <path class="cls-1" d="m36.03,33.89h0c-.54-.13-1.08.2-1.21.74l-3.39,14.1c-.13.54.2,1.08.74,1.21h0c.54.13,1.08-.2,1.21-.74l3.39-14.1c.13-.54-.2-1.08-.74-1.21Z"/>
  <rect class="cls-1" x="18.83" y="62.21" width="3.99" height="2" rx="1" ry="1"/>
  <rect class="cls-1" x="25.99" y="68.75" width="16.28" height="2" rx="1" ry="1"/>
  <rect class="cls-1" x="25.99" y="75.29" width="8.14" height="2" rx="1" ry="1"/>
  <rect class="cls-1" x="36.21" y="75.29" width="17.5" height="2" rx="1" ry="1"/>
  <rect class="cls-1" x="44.77" y="68.75" width="8.94" height="2" rx="1" ry="1"/>
  <rect class="cls-1" x="25.64" y="62.21" width="8.68" height="2" rx="1" ry="1"/>
  <rect class="cls-1" x="37.06" y="62.21" width="16.65" height="2" rx="1" ry="1"/>
  <rect class="cls-1" x="18.83" y="81.84" width="3.99" height="2" rx="1" ry="1"/>
  <rect class="cls-1" x="44.85" y="81.84" width="8.86" height="2" rx="1" ry="1"/>
  <rect class="cls-1" x="25.64" y="81.84" width="16.63" height="2" rx="1" ry="1"/>
  <rect class="cls-1" x="25.64" y="88.38" width="8.32" height="2" rx="1" ry="1"/>
  <rect class="cls-1" x="36.12" y="88.38" width="4.15" height="2" rx="1" ry="1"/>
  <rect class="cls-1" x="42.69" y="88.38" width="11.02" height="2" rx="1" ry="1"/>
  <path class="cls-1" d="m69.27,69.91h-7.56c-.39,0-.71.32-.71.71,0,4.4,3.31,8.25,7.7,8.54.19.01.38.02.57.02s.38-.01.57-.02c4.39-.3,7.7-4.14,7.7-8.54,0-.39-.32-.71-.71-.71h-7.56Zm0,7.27c-3.11,0-5.71-2.29-6.19-5.27h12.38c-.48,2.99-3.08,5.27-6.19,5.27Z"/>
  <path class="cls-1" d="m108.9,75.91h-15.12c-.39,0-.71.32-.71.71,0,4.4,3.31,8.25,7.7,8.54.19.01.38.02.57.02s.38-.01.57-.02c4.39-.3,7.7-4.14,7.7-8.54,0-.39-.32-.71-.71-.71Zm-7.56,7.27c-3.11,0-5.7-2.28-6.18-5.27h12.37c-.48,2.99-3.08,5.27-6.19,5.27Z"/>
  <path class="cls-1" d="m100.11,55.49l-6.06,19.07h2.1l5.22-16.42,5.16,16.42h2.1l-5.82-18.52,1.34.27c.54.11,1.07-.24,1.18-.78.11-.54-.24-1.06-.78-1.17l-2.43-.49h0s-.04,0-.04,0l-13.52-2.75c-.15-1.21-.99-2.2-2.11-2.58v-27.68c0-.46-.38-.84-.84-.84H10.87c-.46,0-.84.37-.84.84v78.36c0,.46.38.84.84.84h64.84c.55,0,1-.45,1-1s-.45-1-1-1H12.03V25.97h72.43v14.72h-.02v7.82c-.73.24-1.34.75-1.73,1.4l-15.32-3.11c-.54-.11-1.07.24-1.18.78-.11.54.24,1.07.78,1.18l1.39.28-6.19,19.48h2.1l5.22-16.42,5.16,16.42h2.1s-5.97-18.99-5.97-18.99l11.51,2.34c.19,1.56,1.51,2.78,3.12,2.78,1.17,0,2.18-.65,2.73-1.59l11.95,2.43ZM12.53,23.78c-.46,0-.84-.37-.84-.84s.37-.84.84-.84.84.37.84.84-.38.84-.84.84Zm3.15,0c-.46,0-.84-.37-.84-.84s.37-.84.84-.84.84.37.84.84-.38.84-.84.84Zm3.15,0c-.46,0-.84-.37-.84-.84s.37-.84.84-.84.84.37.84.84-.38.84-.84.84Zm66.6,28.88c-.64,0-1.16-.52-1.16-1.16s.52-1.16,1.16-1.16,1.16.52,1.16,1.16-.52,1.16-1.16,1.16Z"/>
</svg>