<?xml version="1.0" encoding="UTF-8"?>
<svg id="expanded" xmlns="http://www.w3.org/2000/svg" version="1.1" viewBox="0 0 120 120">
  <!-- Generator: Adobe Illustrator 30.2.1, SVG Export Plug-In . SVG Version: 2.1.1 Build 1)  -->
  <path d="M28.2,34.1c-6.4,6.7-9.6,16-9.6,26.1s3.3,18,9.6,25.8l25.9-25.9-25.9-25.9Z"/>
  <path d="M91.3,34.1c6.4,6.7,9.6,16,9.6,26.1s-3.3,18-9.6,25.8l-25.9-25.9,25.9-25.9Z"/>
  <path d="M33.9,91.6c6.7,6.4,16,9.6,26.1,9.6s18-3.3,25.8-9.6l-25.9-25.9-25.9,25.9Z"/>
  <path d="M59.8,9.9c-27.6,0-50.1,22.5-50.1,50.1s22.5,50.1,50.1,50.1,50.1-22.5,50.1-50.1S87.4,9.9,59.8,9.9ZM59.8,15.9c11.8,0,22.5,4.7,30.4,12.2l-30.4,30.4-30.4-30.4c7.9-7.6,18.6-12.2,30.4-12.2ZM58.4,60l-30.4,30.4c-7.6-7.9-12.2-18.6-12.2-30.4s4.7-22.5,12.2-30.4l30.4,30.4ZM29.3,91.9l30.4-30.4,30.4,30.4c-7.9,7.6-18.6,12.2-30.4,12.2s-22.5-4.7-30.4-12.2ZM61.2,60l30.4-30.4c7.6,7.9,12.2,18.6,12.2,30.4s-4.7,22.5-12.2,30.4l-30.4-30.4Z"/>
</svg>