<?xml version="1.0" encoding="UTF-8"?>
<svg id="expanded" xmlns="http://www.w3.org/2000/svg" version="1.1" viewBox="0 0 120 120">
  <!-- Generator: Adobe Illustrator 30.2.1, SVG Export Plug-In . SVG Version: 2.1.1 Build 1)  -->
  <path d="M112.7,25.4c-1.2-1.3-3.1-1.3-4.4-.1l-11,10.9c0,0,0,.1-.1.2-.2,0-.4,0-.6,0h-26.5l24.5-24.7c1-1,1.3-2.7.4-3.9s-3.3-1.8-4.6-.4l-20.1,20.2-6.4-.7c-2.1-.2-4.2.6-5.6,2.1-3.1,3.5-8.6,9.7-10,12-1.2,2-2.2,4.1-3.1,7.4-1.9-.4-6.7-.9-10.3,2-3.3,2.8-10,9.5-10.3,9.8h0c-.4.5-3.6,4.2-3.6,9.4v10.7l-14,13.8c-.4.4-.4,1,0,1.4.2.2.5.3.7.3s.5,0,.7-.3l12.6-12.4v3.7c0,.9.2,1.8.6,2.6,1,1.7,2.7,2.7,4.5,2.7s1.1,0,1.6-.3c1.2-.4,2.3-1,3.3-1.7,3.5-2.5,5.6-6.8,5.6-11.5l-.2-9.8c0-.3,0-.6,0-.8.1-.8.5-1.5,1-2.1,1.2-1.3,2.2-2.3,3.1-3.1,1.3-1.1,2.5-2.4,3.5-3.9s1.5-2.8,1.8-4c0-.1,0-.3,0-.4,0-.2,0-.5.1-.7.4-1.8.7-3.3,1.1-4.6.9-3.2,1.9-5.2,3-7.1.9-1.6,4.5-5.8,9.7-11.7,1-1.1,2.4-1.6,3.9-1.5l4.8.5-6.9,6.9h0c-.7.7-.2,2,.8,2,2.4,0,5.7,0,5.7,0h28.5c1.7,0,3.2,1.3,3.5,2.9.1.7.1,1.5-.9,2.5s-2.7,1.6-4.2,1.6h-12.1c-.6,0-1,.4-1,1s0,0,0,0c0,0,0,0,0,0,0,.6.4,1,1,1h10.1c1.7,0,3.2,1.1,3.5,2.8s-1.3,4.3-3.4,4.3h-10.3c-.6,0-1,.4-1,1s0,0,0,0c0,0,0,0,0,0,0,.6.4,1,1,1h6.8c1.7,0,3.2,1.1,3.5,2.8s-1.3,4.3-3.4,4.3h-6.9c-.6,0-1,.4-1,1s0,0,0,0c0,0,0,0,0,0,0,.6.4,1,1,1h3.5c1.7,0,3.2,1.1,3.5,2.8s-1.3,4.3-3.4,4.3h-8v-5.5c0-4-3-7.5-7-7.8s-7.6,2.8-8,6.8c-.5-.1-1-.2-1.6-.2-4,0-7.2,3.1-7.5,7-.5-.1-1.1-.2-1.7-.2-4,0-7.3,3.1-7.6,7-1-.2-2-.2-3.1,0-3.5.8-5.8,4-5.8,7.5v13.3s-11.8,11-11.8,11c-.4.4-.4,1,0,1.4.2.2.5.3.7.3s.5,0,.7-.3l10.7-9.9c.8,3.3,3.7,5.7,7.2,5.7s7-2.9,7.4-6.6c.5.1,1.1.2,1.7.2,4,0,7.3-3.1,7.6-7,.5.1,1,.2,1.6.2,3.9,0,7.1-3,7.5-6.8,1.2.3,2.5.2,3.8-.2,3.2-1,5.3-4.1,5.3-7.4v-6.6s7.7,0,7.7,0c3.1,0,5.8-2.5,5.8-5.6s-.6-2.7-1.5-3.7c2.7-.3,4.8-2.7,4.8-5.5s-.6-2.7-1.5-3.7c2.7-.3,4.8-2.7,4.8-5.5s-.5-2.7-1.4-3.7c2.8-.3,5-2.6,5-5.5s0-1.2-.3-1.7l10.6-10.5c1.2-1.1,1.3-3,.2-4.2ZM30.3,72.4l.2,6.2c0,2.7-.2,4.6-2.2,6.3s-.9.7-1.3.5-.1-1-.1-1v-14.9c0-2.7,1.8-4.9,2-5.2.7-.7,6.9-6.9,9.9-9.3,1.4-1.2,3.8-1,5.1-.8-.7.5-2.6,2-10.9,11-1.8,2-2.8,4.5-2.7,7.2ZM45,101.7c0,.8-.6,1.4-1.4,1.4s-1.4-.6-1.4-1.4v-14.4c0-.8.6-1.4,1.4-1.4s1.4.6,1.4,1.4v14.4ZM54.2,95.1c0,1-.9,1.8-1.9,1.6s-1.4-.9-1.4-1.7v-7.7s0-6.5,0-6.5c0-.8.6-1.6,1.4-1.7s1.9.6,1.9,1.6v14.4ZM63.3,88.4c0,1-.9,1.7-1.9,1.5s-1.1-.8-1.1-1.5v-7.6s0-6.9,0-6.9c0-.7.4-1.4,1.1-1.5,1-.3,1.9.5,1.9,1.5v14.6ZM72.3,81.7c0,1-.9,1.7-1.9,1.5s-1.1-.8-1.1-1.5v-7.9s0-6.6,0-6.6c0-.7.4-1.4,1.1-1.5,1-.3,1.9.5,1.9,1.5v14.6Z"/>
</svg>