<?xml version="1.0" encoding="UTF-8"?>
<svg id="expanded" xmlns="http://www.w3.org/2000/svg" version="1.1" viewBox="0 0 120 120">
  <!-- Generator: Adobe Illustrator 30.2.1, SVG Export Plug-In . SVG Version: 2.1.1 Build 1)  -->
  <path d="M115,42.6c-1.2-1.3-3.3-1.3-4.5,0l-10,9.9c-1.4,1.4-2.5,3.1-3.2,5.1-2.1,5.8-4.2,8.7-5.4,9.5,0,0,0,0,0,0l-18.8-19.7c1.3-.6,2.6-1.4,3.9-2.3,1.4-1.1,1.7-3.1.7-4.5-1.1-1.4-3.1-1.7-4.5-.7-5.5,4.1-11.9,3.3-15.3,2.5-3-.7-6.1.2-8.1,2.5-5.4,6.1-10.5,9.9-13.4,10-.6,0-1.1-.2-1.5-.7-1-1.1-1-1.8-1-2.3.2-2.6,4.3-6.1,7.6-9,1.7-1.5,3.4-2.9,4.7-4.3,4.2-4.5,7.6-4.8,9.2-5h.3c1.9-.2,10.3-1.4,18.6-3.1,9.5-2,15.1-10.3,15.3-10.7,1-1.5.6-3.5-.9-4.4-1.5-1-3.5-.6-4.4.9,0,0-4.4,6.5-11.3,7.9-8.1,1.7-16.4,2.8-18,3h-.2c-1.5.2-4.7.5-8.6,3-.4-.2-.8-.4-1.2-.6-1.7-.9-3.3-2.2-4.8-3.8l-8.2-8.6c-.4-.4-1.1-.4-1.5,0s-.4,1.1,0,1.5l8.2,8.6c1.7,1.7,3.5,3.1,5.4,4.2,0,0,.2,0,.3.1-.9.7-1.8,1.5-2.7,2.5-1.1,1.2-2.6,2.4-4.2,3.8-4.4,3.8-9.5,8.1-9.8,13.4,0,1.5.2,3,.9,4.4-.6.4-1.1.8-1.6,1.3l-6.6,6.9c-.4-.9-.8-2-1.2-3.5-.5-1.8-1.5-3.5-2.8-4.9l-10.3-10.7c-.4-.4-1.1-.4-1.5,0-.4.4-.4,1.1,0,1.5l10.3,10.7c1.1,1.1,1.9,2.5,2.3,4,.5,1.9,1.1,3.4,1.6,4.6l-1.4,1.5c-3.4,3.5-3.2,9.1.3,12.5h.1c1.2,1.3,2.7,2,4.3,2.4,0,2.4.8,4.9,2.7,6.7h.1c0,.1,0,.1,0,.1,1.5,1.4,3.4,2.2,5.4,2.4.2,2,1.1,3.9,2.6,5.4h.1c1.7,1.7,3.9,2.5,6,2.5s.8,0,1.3-.1c.4,1.3,1.2,2.5,2.2,3.6h.1c1.6,1.6,3.7,2.5,5.9,2.5s.1,0,.2,0c2.3,0,4.4-1,6-2.7l2.3-2.4,1.6,1.6c1.3,1.3,3,2,4.8,2s3.5-.7,4.8-2c1.3-1.3,2-3,2-4.8s0,0,0-.1c1,.6,2.2.9,3.4.9,1.8,0,3.5-.7,4.8-2,1.7-1.7,2.3-4,1.8-6.2.5.1,1,.2,1.6.2,1.8,0,3.5-.7,4.8-2,1.7-1.7,2.3-4.2,1.8-6.5.4,0,.8.1,1.2.1,1.7,0,3.5-.7,4.8-2,2-2,2.5-4.9,1.5-7.4,2.7-2,5.1-6.1,7.4-12.2.4-1,1-1.9,1.7-2.7l10-9.9c1.3-1.2,1.3-3.3,0-4.5ZM21.8,71.6l9.5-10c.9-1,2.5-1,3.5,0h.1c.8.9,1,2.2.4,3.1l-10.4,10.9c-.9.6-2.2.5-3-.3h-.1c-1-1.1-1-2.6,0-3.6ZM29,84.1c-1-.9-1-2.5,0-3.5l.4-.4c.3-.2.6-.5.8-.8l9.5-10c.3-.3.5-.6.7-.9l1.3-1.3c.9-1,2.5-1,3.5,0h.1c1,1.1,1,2.6,0,3.6l-.4.4s0,0,0,0l-12.3,12.9c-.9,1-2.5,1-3.5,0h-.1ZM37.3,92.2h-.1c-.5-.6-.7-1.1-.7-1.8,0-.6.2-1.2.6-1.7v-.2c.1,0,.1,0,.1,0l12.3-12.9c.9-.9,2.4-1,3.3,0h.1c.9,1,1,2.5,0,3.4l-12.5,13.1c-.9.9-2.4,1-3.3,0ZM48.5,98.7c-.6,0-1.1-.2-1.6-.6h-.1c-.9-1-.9-2.4,0-3.2l9.5-10c.4-.5,1-.7,1.6-.7s1.1.2,1.5.6h.1c.4.5.7,1.1.7,1.7,0,.6-.2,1.2-.6,1.6l-9.5,10c-.4.4-1,.7-1.5.7ZM66.7,100.2c-.9.9-2.1,1.4-3.3,1.4s-2.4-.5-3.3-1.4l-1.6-1.7,5.7-6c.2-.3.5-.5.7-.8l1.9,1.9c.8.9,1.3,2,1.3,3.2s-.5,2.4-1.4,3.3ZM92.8,77.8c-1.7,1.7-4.4,1.8-6.2.3,0,0,0,0,0,0l-12.9-12.9c0,0-.1,0-.2-.1h0c-.4-.5-1.1-.5-1.5,0s-.4,1.1,0,1.5l12.9,12.9c.1.1.3.3.4.4,1.7,1.8,1.6,4.7-.1,6.4s-2.1,1.4-3.3,1.4-2.4-.5-3.3-1.4l-12.9-12.9s0,0,0,0h0c-.4-.5-1.1-.5-1.5,0s-.4,1.1,0,1.5l12.9,12.9c1.8,1.8,1.8,4.8,0,6.6-1.8,1.8-4.8,1.8-6.6,0l-2-2s0,0,0,0l-2.3-2.3c.4-1.1.6-2.2.6-3.4,0-2.3-1-4.4-2.7-6h-.1c-1.1-1.1-2.3-1.8-3.7-2.2.2-2.6-.7-5.2-2.7-7.1h-.1c-1.4-1.4-3.1-2.2-4.9-2.4-.1-2.2-1-4.3-2.7-5.9h-.1c-2.2-2.2-5.2-2.9-7.9-2.4,0-.1-.1-.3-.2-.4,4.8-2.2,9.6-6.8,13.1-10.9.4-.5,1.1-.7,1.8-.5,3.3.8,8.8,1.5,14.5-.4l19.7,20.6,2.4,2.5c.5.5.8,1,1,1.6.6,1.7.3,3.6-1,5Z"/>
</svg>