<?xml version="1.0" encoding="UTF-8"?>
<svg id="expanded" xmlns="http://www.w3.org/2000/svg" version="1.1" viewBox="0 0 120 120">
  <!-- Generator: Adobe Illustrator 30.2.1, SVG Export Plug-In . SVG Version: 2.1.1 Build 1)  -->
  <path d="M102.4,66.3c3.4-1.6,5.1-5.4,3.9-8.9-1.1-3.5-4.5-5.7-8.2-5.2-7.4,1-19.6,1.1-27,.7l-30.4-1.8c-13.5-.8-25.5,7.5-28.5,19.7l-6.5,26.5c-.2.9,0,1.8.6,2.5.6.8,1.5,1.2,2.4,1.2h10.6c1.5,0,2.6-1,3-2.5l.8-3.3.3,2.9c.2,1.7,1.4,2.9,3.1,2.9h31.8s.1,0,.1,0c1.7-.2,2.8-1.3,2.9-2.9l2.5-24c13.4.6,26.4-2.1,38.6-7.8ZM61.3,67.9h0s0,0,0,0c-1.7,0-2.8,1.1-3.1,2.8l-2.5,24.3h-26.5s-2-18-2-18c-.3-1.4-1.3-2.5-2.7-2.6-.1,0-.2,0-.3,0-1.4,0-2.6,1-3,2.4l-4.2,18.2h-4.4s5.6-22.8,5.6-22.8c2.3-9.3,11.7-15.8,21.9-15.1l17.1,1.2c8,.5,16.4.8,25.5.8,6.1,0,11.3-.3,16.2-.9.7,0,1.4.3,1.6.9.2.8,0,1.4-.8,1.8-12.1,5.7-25.4,8.1-38.5,7Z"/>
  <path d="M44.8,48.7c.1,0,.2,0,.3,0,4.3,0,8.3-1.8,11.3-5,3-3.1,4.6-7.2,4.5-11.5-.2-8.8-7.5-15.8-16.3-15.6-4.3,0-8.3,1.8-11.3,4.9-3,3.1-4.6,7.2-4.5,11.5.2,8.7,7.4,15.7,16,15.7ZM37,26.4c1.7-2.1,4.1-3.4,6.8-3.7,5.4-.6,10.3,3.4,11,8.8.3,2.6-.4,5.2-2.1,7.3-1.7,2.1-4.1,3.4-6.8,3.7-5.4.6-10.3-3.4-11-8.8-.3-2.6.5-5.3,2.1-7.3Z"/>
  <path d="M114.2,97.7l-8.7-29.3c0-.3-.3-.5-.6-.6-.3-.1-.6-.1-.9,0-4.4,2.4-9.1,4.2-14.1,5.5-7.1,1.8-14.4,2.8-22.3,3.1-.6,0-1.1.4-1.1,1l-2.2,20.5c0,.3,0,.6.3.8.2.2.5.4.8.4h28.1c.7,0,1.1-.4,1.1-1.1v-9.1c.1,0,4.7,9.7,4.7,9.7.1.2.6.5,1,.5h12.8c.3,0,.7-.2.9-.5.2-.2.2-.5.2-.8ZM100.9,97h0c0-.1-6.1-13.4-6.1-13.4-.2-.4-.7-.7-1.1-.6-.4,0-.7.4-.9.9v13.2s-26.1,0-26.1,0v-.3s2-18.3,2-18.3h.6c9.4-.5,17.6-1.8,25.2-4.2,3.4-1.1,6.1-2.2,8.8-3.5l.8-.4v.3c0,0,7.9,26.4,7.9,26.4h-11Z"/>
  <path d="M82.1,50.6c3.3-.4,6.3-2.1,8.3-4.7,2.1-2.6,3-5.9,2.6-9.2-.8-6.2-6.1-11-12.3-11s-.9,0-1.4,0c-3.3.4-6.3,2-8.4,4.7-2.1,2.6-3,5.9-2.6,9.3.9,6.7,7,11.6,13.8,10.8ZM72.1,32.4c1.6-2.3,3.9-3.8,6.7-4.3,2.8-.5,5.5.1,7.8,1.7,2.3,1.6,3.8,4,4.3,6.8,1,5.6-2.9,11-8.5,12-.6,0-1.2.1-1.7.1-5,0-9.2-3.5-10.2-8.4-.5-2.8,0-5.6,1.6-7.9Z"/>
  <path d="M47.7,64.9c-2-.3-4,.3-5.5,1.6-1.5-1.3-3.5-1.9-5.5-1.6-3.2.5-5.5,3.2-5.5,6.5v.2c0,1.9.8,3.7,2.2,5l7,6.5c.5.4,1.1.7,1.8.7s1.3-.2,1.8-.7l7-6.5c1.4-1.3,2.2-3.1,2.2-5v-.2c0-3.2-2.3-5.9-5.5-6.5ZM51.2,71.5c0,1.3-.6,2.6-1.5,3.5l-7,6.5c-.2.2-.6.2-.8,0l-7-6.5h0c-1-.9-1.5-2.2-1.5-3.5v-.2c0-2.2,1.6-4.1,3.8-4.5.2,0,.5,0,.7,0,1.2,0,2.4.5,3.2,1.3l1.2,1.2,1.2-1.2c1-1,2.5-1.5,4-1.3,2.2.4,3.8,2.2,3.8,4.5v.2Z"/>
</svg>